<svg xmlns:xlink="http://www.w3.org/1999/xlink" xmlns="http://www.w3.org/2000/svg" viewBox="0 0 1229.6 1255.29" width="1229.6"  height="1255.29" ><defs><style>.cls-1{fill:#efecea;}.cls-2{fill:#fff;}.cls-3{fill:#007042;}.cls-4{fill:#231f20;}</style></defs><title>Asset 6</title><g id="Layer_2" data-name="Layer 2"><g id="Layer_2-2" data-name="Layer 2"><path class="cls-1" d="M57.18,518.9C57.18,233,288.86,1.31,574.7,1.31S1092.3,233,1092.3,518.9s-231.72,517.57-517.6,517.57S57.18,804.78,57.18,518.9"/><path class="cls-1" d="M54.38,519.43c0,286.86,232.57,519.39,519.41,519.39s519.43-232.53,519.43-519.39S860.66,0,573.79,0,54.38,232.57,54.38,519.43"/><path class="cls-2" d="M54.38,519.43c0,286.86,232.57,519.39,519.41,519.39s519.43-232.53,519.43-519.39S860.66,0,573.79,0,54.38,232.57,54.38,519.43"/><path class="cls-3" d="M627.63,221c-1.79-1.23-53.84-40.91-53.84-40.91S521.71,219.73,519.92,221c-1.9,1.51-1,4.08,1.59,3.61a309.84,309.84,0,0,1,104.53,0c2.62.47,3.65-2.1,1.59-3.61"/><path class="cls-3" d="M536.08,481.78a6.39,6.39,0,0,0-3.51,3.44c11,8.41,18.51,27.43,41.22,27.43s30.34-19,41.2-27.43a6.2,6.2,0,0,0-3.53-3.44s-14.19,3.34-37.67,3.34-37.71-3.34-37.71-3.34"/><path class="cls-3" d="M573.79,449.65c-6.3,0-7.73-2.28-12-2.28-4.1,0-12.13,3.25-13.83,6.22a7.32,7.32,0,0,0,1.78,4.13c9.16,1.44,13.38,6.54,24.06,6.54s14.87-5.1,24.11-6.54a6.91,6.91,0,0,0,1.71-4.13c-1.71-3-9.68-6.22-13.77-6.22-4.38,0-5.71,2.28-12.05,2.28"/><path class="cls-3" d="M936.29,506.25a366.06,366.06,0,0,0-20.42-43.07C994,449.43,1020.16,514.83,1093,504.57,1085.17,224.57,855.71,0,573.79,0S62.35,224.57,54.6,504.57c72.79,10.26,99-55.14,177.08-41.39a370.37,370.37,0,0,0-20.33,43.07c-62.35-6.86-87.72,49.43-156.22,41.56.74,12.51,1.79,24.76,3.29,36.94,59,10,79.76-42.63,140.08-40a383.4,383.4,0,0,0-8.8,39.12c-49.72-.2-69.48,46.48-124.95,39.5,2.91,14.15,6.34,28.26,10.48,42,43.84,4.46,58.94-39.13,109.56-38-.32,7.34-.56,14.51-.56,21.92,0,4,.08,8.13.24,12.15-43.26-.59-57,39.46-98.26,37.48,5.11,14,10.9,27.55,17.18,41,29.67-1.54,39.58-39.59,84.65-36.55,1.31,9.72,3.09,19.31,5,28.85-39.08-2.8-47.17,33.35-75.27,36,7.08,13,14.79,25.67,23,38,16.61-8.62,30.74-35.63,62.09-37.34-3.09-9.91-5.92-19.94-8.32-30.31,27.9,0,59.71-10.79,86.37-35.09-8.6-49.31,67.82-99.45,67.82-135.54,0-39.23-19.78-60.87-19.78-113.7,0-39.18,19-81.78,47.74-110.87a94.48,94.48,0,0,1,17.82-14.23c-26.38,32.6-46.71,71.27-46.71,116.16,0,49.76,23.28,76,23.28,121.9s-67.26,85.68-67.26,133c0,18.56,6,36.79,25.65,72.62-30.23,30-69.43,46.52-94.78,46.52-8.28,0-12.74-2.48-15.65-9-2.48-5.45-5-11.16-7.22-16.82-27.35,1-39.56,26.08-54.82,35.87,8.33,11.18,17,21.88,26.16,32.34,10.15-11.28,23.57-30.21,43.57-35.58q5.4,10.56,11.29,20.51c-17.18,4.7-28.75,22.15-37.85,33.62,9.75,10.15,20,19.78,30.6,29.12,6.62-10.31,16.73-23.49,28.38-30.61,4.28,5.81,8.74,11.4,13.32,17-9.93,6.76-18.31,18.73-24.1,28.48,12.28,9.87,24.93,19.1,37.93,27.82,6.38-52.87,78.48-88.82,59.1-150.14,6.42,10.86,14,24.38,14,40.55,0,44.31-47.41,79.39-51.05,123.51,9.89,5.87,19.82,11.35,30.08,16.6,1.47-48.47,51.67-101.33,51.67-141.14,0-44.32-58.09-88.85-58.09-141.2s67-88.72,67-134.6-28.56-72.42-28.56-131.28c0-43.15,20.48-86.79,52.18-114.71a88.41,88.41,0,0,1,17.72-12.35c-29.85,35.77-47.19,68.36-47.19,117.66,0,55.38,32.66,86.14,32.66,140.32s-65.7,84.39-65.7,135,61.21,93.17,61.21,145.12c0,47.25-54.07,94.28-54.74,150.46q17.66,7.68,36,14.12c-7.06-56.73,53.83-115,53.83-161.27,0-50.52-63.43-93.92-63.43-148.43s64.49-79.82,64.49-135.68-39.63-86.92-39.63-148.67c0-48.24,23.74-91.49,58.54-118.32.72-.59,1.47-1.11,2.18-1.7,3.37-2.44,6,.47,3.65,3.32-24.58,30.76-37.74,61.82-37.74,107.84,0,56.5,45.53,102.4,45.53,157.1,0,64.59-61.07,83.12-61.07,136.11S494.48,795.63,494.48,852c0,52.22-62.12,110-51.29,170.4,12.4,3.15,25.05,5.93,37.83,8.22-11.79-75.13,49.15-128.84,49.15-177.87,0-53.19-67.88-100.52-67.88-152.41,0-48.93,48.68-64.92,55-115.1.93-6.82,6.42-11.81,14-10.58,9.85,1.82,22.49,8.32,42.47,8.32s32.56-6.5,42.5-8.32c7.49-1.23,13,3.76,13.92,10.58,6.34,50.18,55,66.17,55,115.1,0,51.89-67.77,99.22-67.77,152.41,0,49,60.84,102.74,49.1,177.87,12.81-2.29,25.37-5.07,37.86-8.22,10.86-60.43-51.37-118.18-51.37-170.4,0-56.32,65.48-98.69,65.48-151.66s-61-71.52-61-136.11c0-54.7,45.38-100.6,45.38-157.1,0-46-13.08-77.08-37.66-107.84-2.33-2.85.4-5.76,3.65-3.32.68.59,1.47,1.11,2.14,1.7,34.76,26.83,58.58,70.08,58.58,118.32,0,61.75-39.63,92.71-39.63,148.67s64.57,81.21,64.57,135.68-63.5,97.91-63.5,148.43c0,46.24,60.84,104.54,53.83,161.27,12.21-4.3,24.26-9,36-14.12-.72-56.18-54.74-103.21-54.74-150.46,0-51.95,61.2-94.52,61.2-145.12s-65.8-80.75-65.8-135S754.35,480.39,754.35,425c0-49.3-17.36-81.89-47.21-117.66a87.81,87.81,0,0,1,17.8,12.35c31.71,27.92,52.12,71.56,52.12,114.71,0,58.86-28.57,85.32-28.57,131.28s67.06,82.22,67.06,134.6-58.07,96.88-58.07,141.2c0,39.81,50.14,92.67,51.73,141.14,10.19-5.25,20.1-10.73,30-16.6-3.69-44.12-51-79.2-51-123.51,0-16.17,7.53-29.69,13.91-40.55-19.42,61.32,52.84,97.27,59.14,150.14,13.09-8.72,25.69-18,37.9-27.82-5.67-9.75-14.15-21.72-24.06-28.48,4.51-5.57,9-11.16,13.28-17,11.65,7.12,21.8,20.3,28.41,30.61,10.59-9.34,20.82-19,30.56-29.12-9.07-11.47-20.57-28.92-37.85-33.62,4-6.65,7.81-13.47,11.3-20.51,20,5.37,33.49,24.3,43.6,35.58,9.16-10.46,17.8-21.16,26.16-32.34-15.14-9.79-27.39-34.83-54.86-35.87-2.22,5.66-4.68,11.37-7.21,16.82-2.89,6.56-7.37,9-15.54,9-25.33,0-64.64-16.51-94.77-46.52,19.66-35.83,25.52-54.06,25.52-72.62,0-47.34-67.14-87.16-67.14-133s23.19-72.14,23.19-121.9c0-44.89-20.3-83.56-46.74-116.16a92.49,92.49,0,0,1,17.8,14.23c28.74,29.09,47.8,71.69,47.8,110.87,0,52.83-19.86,74.47-19.86,113.7,0,36.09,76.51,86.23,67.9,135.54,26.68,24.3,58.51,35.09,86.34,35.09-2.38,10.37-5.2,20.4-8.41,30.31,31.47,1.71,45.63,28.72,62.23,37.34,8.17-12.31,15.86-25,23-38-28.18-2.69-36.23-38.84-75.39-36,2-9.54,3.73-19.13,5.08-28.85,45-3,54.89,35,84.62,36.55,6.34-13.43,12-27,17.12-41-41.18,2-54.9-38.07-98.1-37.48.08-4,.16-8.1.16-12.15,0-7.41-.24-14.58-.6-21.92,50.62-1.13,65.76,42.46,109.64,38,4.09-13.76,7.49-27.87,10.39-42-55.33,7-75.15-39.7-124.9-39.5-2.34-13.39-5.2-26.28-8.72-39.12,60.21-2.68,81,49.9,140,40,1.54-12.18,2.58-24.43,3.29-36.94-68.49,7.87-93.9-48.42-156.13-41.56m-686.1-73.94c-74.6-25.89-123.73,48.24-181.26,31C124.78,404,170.24,336.4,164.22,258.7c-.4-4.6,3.76-7.1,7.65-4.41,28.42,19.67,48.49,52.29,54.54,89.15,39.6-25.37,85.81-29,124-13.4A395.3,395.3,0,0,0,250.19,432.31M673,345.6c.79,2.64-.28,4.42-3.41,3-8.57-3.86-18.51-5.71-29.22-5.71-19.7,0-37.06,7.14-47.29,19.8-6.31,20.68-5.91,43.94,1.67,62.07,11.34-1.08,10.38-21.22,19.86-21.22,7.93,0,11.61,5.51,25,5.51,12.37,0,17.4-3.45,22.67-7.35,10.9,1.44,13.44,11.75,13.44,23.86,0,53.67-49.43,127.59-102,127.59S471.92,479.22,471.92,425.55c0-12.11,1.88-22.81,12.25-22.81,8.8,0,10.39,6.3,23.78,6.3s19.55-5.51,27.41-5.51,10.84,6.26,18.93,8.09c5.17-12.33,4.8-34,.28-48.94-10.31-12.66-27.65-19.8-47.25-19.8A72.14,72.14,0,0,0,478,348.59c-3.09,1.43-4.19-.35-3.39-3,10.66-35.28,51-62.57,99.19-62.57S662.43,310.32,673,345.6M672,372c0,4.48-1.5,8.4-6.3,12.68-8.95-9.93-27.46-9.67-48.43-2.46a13.93,13.93,0,0,1-.37-9c8.53-9.48,22.13-13,33.62-13C664.85,360.17,672,365,672,372m-196.29,0c0-7,7-11.81,21.32-11.81,19.7,0,39.42,12,38.45,23.09-22.2-8.21-43.4-8.7-53.55,1.4-4.79-4.28-6.22-8.2-6.22-12.68m280.41-74.8c-1.59,3.77-5.32,5-9.16,3a390.37,390.37,0,0,0-346.21,0c-4,2-7.53.74-9.27-3-15-33.69-35.28-65-58.15-94.31,38.09,2.67,71.23,15.69,98,37.53a387.53,387.53,0,0,0-44-87.7c48.45,5.14,88.92,22.91,118.55,53.12l23.13-60.59L477.59,99.79,546.32,95l27.47-64,27.44,64L670,99.79l-51.29,45.44,23.15,60.59c29.53-30.21,70.12-48,118.51-53.12a391.4,391.4,0,0,0-44.07,87.7c26.71-21.84,59.85-34.86,97.91-37.53-22.84,29.27-43.13,60.62-58.11,94.31m41,32.86c38.13-15.58,84.5-12,124,13.4,6.06-36.86,26.08-69.48,54.58-89.15,3.88-2.69,7.92-.19,7.61,4.41-6,77.7,39.44,145.25,95.37,204.57-57.67,17.28-106.63-56.85-181.34-31A393,393,0,0,0,797.12,330"/><g id="_Group_" data-name="&lt;Group&gt;"><path id="_Path_" data-name="&lt;Path&gt;" class="cls-4" d="M778.55,1198.31c-.09,37.12-19.91,57-56.94,57-36.35,0-56.76-20.46-56.68-56.61l.22-65.77H706l-.11,63.67c-.06,17.65,4.51,25.45,15.52,25.42s16.3-7,16.36-27.23l.17-61.87h40.86Z"/><polygon id="_Path_2" data-name="&lt;Path&gt;" class="cls-4" points="193.11 1163.27 192.86 1252.8 151.55 1252.8 151.84 1163.27 117.3 1163.28 117.4 1132.86 227.71 1132.89 227.63 1163.3 193.11 1163.27"/><path id="_Compound_Path_" data-name="&lt;Compound Path&gt;" class="cls-4" d="M297.13,1160.22l-10.26,41.08,20.54,0Zm26.31,92.58-6.87-22H277.82l-7.35,22-41.1,0,42.06-120h52.18l40.94,119.94Z"/><path id="_Path_3" data-name="&lt;Path&gt;" class="cls-4" d="M910.8,1243.55l-12.3-31.13c-7.29,5.72-14.66,10.9-26.66,10.87-16.19,0-27-13.92-26.9-30.89,0-17.22,9.56-31.6,26.43-31.64,10.62,0,19.89,5.53,27.27,11.7L910.89,1142c-13.62-7.17-27.23-11.5-46-11.5-34.73-.06-61.08,24.81-61.2,61.51-.12,38.73,25.4,63.24,62,63.24,20.15,0,34.3-4.86,45.09-11.74"/><polygon id="_Path_4" data-name="&lt;Path&gt;" class="cls-4" points="1003.5 1252.83 977.82 1209.15 977.68 1252.9 937.59 1252.83 937.96 1132.9 978.03 1132.91 977.89 1176.85 1002.21 1132.94 1046.94 1132.94 1009.16 1192.04 1051.46 1252.86 1003.5 1252.83"/><path id="_Path_5" data-name="&lt;Path&gt;" class="cls-4" d="M48.17,1255.26c26,0,52.94-9.71,53-40.36.13-27.68-22.38-35.23-39.87-39.23-13.2-2.92-19.59-4.38-19.53-9.92,0-7.3,8.94-7.9,13.67-7.9,11.89,0,23,5.11,32.5,11.15l10.76-27.33c-14-6.28-30.89-11.23-46.75-11.23-27,0-48.11,13.62-48.14,41-.1,22.48,16.15,31.14,34.17,35.8,12.4,3.21,20.37,4.22,20.35,10.62s-6.11,8.37-12,8.34A51.31,51.31,0,0,1,13,1213.32l-13,26.5c13.94,9.49,31,15.44,48.17,15.44"/><path id="_Path_6" data-name="&lt;Path&gt;" class="cls-4" d="M1112.14,1255.29c26,0,53-9.65,53.06-40.33,0-27.69-22.4-35.26-39.92-39.19-13.23-3-19.55-4.38-19.51-9.92,0-7.35,8.9-7.91,13.67-7.94,11.88,0,23,5.11,32.47,11.23l10.83-27.34c-14-6.29-31-11.27-46.75-11.33-27,.06-48.14,13.61-48.19,41-.08,22.51,16.21,31.21,34.15,35.86,12.41,3.2,20.4,4.13,20.36,10.63s-6.1,8.32-12,8.32c-13.1,0-25.55-6-33.31-12.93l-13,26.51c13.91,9.44,31,15.39,48.12,15.39"/><path id="_Compound_Path_2" data-name="&lt;Compound Path&gt;" class="cls-4" d="M473.42,1208c14-5.35,21.69-20.19,21.7-34,.11-28.28-18.36-41.14-44.62-41.12l-61.9,0-.31,119.93H428l.1-35.56h10l20.51,35.56h42.91Zm-18.5-33.81c0,7.87-4.78,12.44-12.61,12.44l-14.11,0,.07-25h14.27c7.54,0,12.42,4,12.38,12.26Z"/><path id="_Compound_Path_3" data-name="&lt;Compound Path&gt;" class="cls-4" d="M612.69,1191.6c14.91-3.35,22.26-12.14,22.31-26.75.1-20.44-14.52-31.94-40.29-31.94l-65.34,0-.29,120h62.74c30.3-.1,45.43-11.25,45.46-33.88,0-15.63-9.39-26.16-24.59-27.42m-44.07-32.67H583c7.57-.07,12.54,3.39,12.54,10.41l0,.32c0,6.67-4.8,10.56-12.74,10.57l-14.22,0ZM596,1215.71c0,7-4.92,11.14-13,11.11l-14.54,0,.07-22.48h14.7c7.76,0,12.8,3.61,12.83,11Z"/><path id="_Compound_Path_4" data-name="&lt;Compound Path&gt;" class="cls-4" d="M1195.08,1138.88h-8.58v28.36h-4.57v-28.36h-8.47v-4.28h21.62Zm8.6,28.36h-4.57V1134.6h7.06l8.33,24.73,8.07-24.73h7v32.64H1225V1140h-.13l-9.07,27.24h-2.94l-9.08-27.24h-.13Z"/></g></g></g></svg>